Coordinates
version=1
nRows=5
nColumns=69
inDegrees=yes

Units are S.I. units (second, meters, Newtons, ...)
If the header above contains a line with 'inDegrees', this indicates whether rotational values are in degrees (yes) or radians (no).

endheader
time	pelvis_tilt	pelvis_list	pelvis_rotation	pelvis_tx	pelvis_ty	pelvis_tz	hip_flexion_r	hip_adduction_r	hip_rotation_r	knee_angle_r	knee_angle_r_beta	ankle_angle_r	subtalar_angle_r	mtp_angle_r	hip_flexion_l	hip_adduction_l	hip_rotation_l	knee_angle_l	knee_angle_l_beta	ankle_angle_l	subtalar_angle_l	mtp_angle_l	L5_S1_Flex_Ext	L5_S1_Lat_Bending	L5_S1_axial_rotation	L4_L5_Flex_Ext	L4_L5_Lat_Bending	L4_L5_axial_rotation	L3_L4_Flex_Ext	L3_L4_Lat_Bending	L3_L4_axial_rotation	L2_L3_Flex_Ext	L2_L3_Lat_Bending	L2_L3_axial_rotation	L1_L2_Flex_Ext	L1_L2_Lat_Bending	L1_L2_axial_rotation	L1_T12_Flex_Ext	L1_T12_Lat_Bending	L1_T12_axial_rotation	Abs_r3	Abs_r2	Abs_r1	Abs_t1	Abs_t2	neck_flexion	neck_bending	neck_rotation	sh_tx_r	sh_ty_r	sh_tz_r	sh_plane_elev_r	sh_elev_r	sh_axial_rot_r	elbow_flex_r	pro_sup_r	wrist_flex_r	wrist_dev_r	sh_tx_l	sh_ty_l	sh_tz_l	sh_plane_elev_l	sh_elev_l	sh_axial_rot_l	elbow_flex_l	pro_sup_l	wrist_flex_l	wrist_dev_l
      1.25000000	    -10.45381936	     15.56252970	    -87.58771042	     -0.07588487	      0.92337630	     -0.83207833	     36.64570751	     14.30915561	     -7.67466377	      8.45936642	      0.14764380	    -16.71783790	     -8.96699286	      0.00000000	     14.70386606	     -7.84004182	      2.87995986	     29.18214768	      0.50932456	     14.19724832	    -18.95858711	      0.00000000	     -0.00543637	     -1.90443232	      0.48531682	     -0.01009589	     -2.53289499	      0.51564912	     -0.00893142	     -4.63043675	      0.51564912	     -0.00621323	     -4.63043675	      0.42465222	     -0.00504822	     -3.88351840	      0.39431992	     -0.00310634	     -2.94996567	      0.36398762	     -0.03883146	    -21.54331934	      2.69918657	      0.00000000	      0.00000000	      0.00000000	      0.00000000	      0.00000000	      0.02486215	     -0.01187453	     -0.00316843	    -14.53703439	     37.76455966	    -27.62685766	    126.41575309	     89.99559364	      0.00000000	      0.00000000	     -0.00132803	     -0.01032936	     -0.00372885	     -9.08292705	     47.38440756	     -5.47934230	     60.02309619	     89.99559364	      0.00000000	      0.00000000
      1.26666670	     -9.66843920	     14.86365009	    -87.06879586	     -0.06708965	      0.92113392	     -0.82014796	     35.97817798	     13.60205661	     -8.29274911	     11.72498826	      0.20463965	    -14.98926907	    -12.09097776	      0.00000000	     13.16524855	     -6.59035826	      2.44388997	     29.29545340	      0.51130212	     14.01046060	    -18.82424289	      0.00000000	     -0.00160051	     -1.69731217	      0.57797977	     -0.00297230	     -2.25742519	      0.61410351	     -0.00262947	     -4.12684482	      0.61410351	     -0.00182922	     -4.12684482	      0.50573230	     -0.00148623	     -3.46115898	      0.46960857	     -0.00091453	     -2.62913656	      0.43348483	     -0.01143225	    -19.20033476	      3.21455010	      0.00000000	      0.00000000	      0.00000000	      0.00000000	      0.00000000	      0.02318797	     -0.01207986	     -0.00298531	    -15.14292448	     38.81130843	    -27.50727450	    124.67790669	     89.99559364	      0.00000000	      0.00000000	     -0.00726378	     -0.01235467	     -0.00375010	     -9.27154873	     45.66490793	     -5.11949581	     60.39173344	     89.99559364	      0.00000000	      0.00000000
      1.28333330	     -8.46098863	     14.23736802	    -86.82727189	     -0.05862447	      0.91851803	     -0.80994161	     35.88384032	     12.58244034	     -7.14271506	     15.66963845	      0.27348678	    -14.54665068	    -17.39892967	      0.00000000	     11.82614363	     -4.92460792	      1.86901843	     29.67260275	      0.51788462	     13.92400006	    -18.77629726	      0.00000000	      0.00025456	     -1.54181979	      0.76301689	      0.00047274	     -2.05062031	      0.81070545	      0.00041821	     -3.74878063	      0.81070545	      0.00029093	     -3.74878063	      0.66763978	      0.00023638	     -3.14407891	      0.61995122	      0.00014545	     -2.38827885	      0.57226267	      0.00181828	    -17.44137378	      4.24367104	      0.00000000	      0.00000000	      0.00000000	      0.00000000	      0.00000000	      0.02060883	     -0.01234180	     -0.00309649	    -16.25326762	     40.42200422	    -26.89916188	    122.27096038	     89.99559364	      0.00000000	      0.00000000	     -0.00666848	     -0.01283141	     -0.00352345	    -10.30065598	     44.17301411	     -4.39240262	     60.93992234	     89.99559364	      0.00000000	      0.00000000
      1.30000000	     -7.36319348	     13.70699728	    -86.24679326	     -0.04964732	      0.91609800	     -0.80085385	     36.31259752	     11.08133799	     -7.39945940	     20.06371804	      0.35017794	    -11.48251785	    -18.65440299	      0.00000000	     10.80112158	     -3.26086434	      1.88724075	     30.24935383	      0.52795082	     14.27036611	    -18.61409783	      0.00000000	      0.00306162	     -1.36098364	      0.82618745	      0.00568574	     -1.81010824	      0.87782417	      0.00502994	     -3.30909561	      0.87782417	      0.00349913	     -3.30909561	      0.72291402	      0.00284302	     -2.77531783	      0.67127730	      0.00174941	     -2.10816365	      0.61964059	      0.02186886	    -15.39571909	      4.59500675	      0.00000000	      0.00000000	      0.00000000	      0.00000000	      0.00000000	      0.01936058	     -0.01201476	     -0.00309746	    -16.81874323	     41.92522606	    -26.59958957	    120.11460008	     89.99559364	      0.00000000	      0.00000000	     -0.00667338	     -0.01360137	     -0.00338280	    -10.88476608	     43.21034457	     -3.83113884	     60.15244120	     89.99559364	      0.00000000	      0.00000000
      1.31666670	     -6.11391047	     13.25552330	    -85.63752721	     -0.04091868	      0.91412190	     -0.79240298	     36.96728550	      9.23014622	     -7.45849457	     24.39522724	      0.42577704	     -7.88646379	    -18.97089010	      0.00000000	     10.03556027	     -1.44549897	      2.12640514	     31.11185037	      0.54300423	     14.79664604	    -18.42193419	      0.00000000	     -0.00198504	     -1.20002015	      0.86131474	     -0.00368641	     -1.59602680	      0.91514691	     -0.00326122	     -2.91772900	      0.91514691	     -0.00226870	     -2.91772900	      0.75365039	     -0.00184331	     -2.44708109	      0.69981822	     -0.00113425	     -1.85883121	      0.64598605	     -0.01417893	    -13.57486796	      4.79037416	      0.00000000	      0.00000000	      0.00000000	      0.00000000	      0.00000000	      0.01758140	     -0.01185405	     -0.00317355	    -17.23600267	     43.50337572	    -26.07638411	    117.90353118	     89.99559364	      0.00000000	      0.00000000	     -0.00345348	     -0.01398394	     -0.00319416	    -11.27187726	     43.12888035	     -3.28012762	     59.08807420	     89.99559364	      0.00000000	      0.00000000
